<svg id="Layer_1" data-name="Layer 1" xmlns="http://www.w3.org/2000/svg" xmlns:xlink="http://www.w3.org/1999/xlink" viewBox="0 0 16 16"><defs><style>.cls-1{fill:#fff;}.cls-2{fill:url(#linear-gradient);}.cls-3{fill:url(#linear-gradient-2);}</style><linearGradient id="linear-gradient" x1="2.02" y1="6.65" x2="11.66" y2="6.65" gradientUnits="userSpaceOnUse"><stop offset="0.05" stop-color="#006837"/><stop offset="0.31" stop-color="#39b54a"/></linearGradient><linearGradient id="linear-gradient-2" x1="9.11" y1="10" x2="15.02" y2="10" xlink:href="#linear-gradient"/></defs><title>logo 2</title><rect class="cls-1" width="16" height="16"/><path class="cls-2" d="M10.87,11.61s-.86,1.46-4,1.06S2.35,8.58,2.35,8.58s-.82-2.22.14-2.28S3.87,7.6,3.87,7.6a10.49,10.49,0,0,0,1,1.22c.48.46.8-.17.42-.4-.12-.15-.59-.63-.59-.63v-6a.56.56,0,0,1,.55-.46.67.67,0,0,1,.69.46l.24,4.43.28,0,.24-5.1S6.8.47,7.32.57s.51.39.51.39l.11,5.22.34,0,.31-4.8A.55.55,0,0,1,9.21.84a.61.61,0,0,1,.59.64l.07,4.7.27,0V5.78l.31-3.15a.72.72,0,0,1,.66-.55c.55,0,.55.64.55.64V7.79"/><path class="cls-3" d="M12.05,8.16c-1-1.7-6.16.16.14,4.4C18.17,8.17,13,6.29,12.05,8.16Z"/></svg>