<svg id="Layer_1" data-name="Layer 1" xmlns="http://www.w3.org/2000/svg" xmlns:xlink="http://www.w3.org/1999/xlink" viewBox="0 0 16 16"><defs><style>.cls-1{fill:url(#linear-gradient);}.cls-2{fill:#f9f9f9;}</style><linearGradient id="linear-gradient" y1="8" x2="16" y2="8" gradientUnits="userSpaceOnUse"><stop offset="0.14" stop-color="#006837"/><stop offset="0.43" stop-color="#39b54a"/></linearGradient></defs><title>logo</title><rect class="cls-1" width="16" height="16"/><path class="cls-2" d="M9.84,12.05s-.86,1.45-4,1.06S1.33,9,1.33,9,.5,6.8,1.47,6.74,2.85,8,2.85,8a10.69,10.69,0,0,0,1,1.21c.47.47.8-.16.42-.39-.12-.15-.59-.64-.59-.64v-6s0-.39.55-.45a.67.67,0,0,1,.69.45l.24,4.43.28,0,.24-5.09S5.78.91,6.29,1s.52.4.52.4l.1,5.21.35,0,.31-4.79a.56.56,0,0,1,.62-.58.62.62,0,0,1,.59.64l.07,4.7.27,0V6.22l.31-3.16a.7.7,0,0,1,.66-.54c.55,0,.55.64.55.64V8.22"/><path class="cls-2" d="M11,8.59c-1-1.69-6.16.17.14,4.41C17.15,8.6,11.94,6.73,11,8.59Z"/></svg>